<?xml version="1.0" standalone="no"?>
<!DOCTYPE svg PUBLIC "-//W3C//DTD SVG 20010904//EN"
 "http://www.w3.org/TR/2001/REC-SVG-20010904/DTD/svg10.dtd">
<svg version="1.0" xmlns="http://www.w3.org/2000/svg"
 width="800.000000pt" height="800.000000pt" viewBox="0 0 800.000000 800.000000"
 preserveAspectRatio="xMidYMid meet">
<metadata>
Created by potrace 1.14, written by Peter Selinger 2001-2017
</metadata>
<g transform="translate(0.000000,800.000000) scale(0.100000,-0.100000)"
fill="#000000" stroke="none">
<path d="M5297 6527 c-81 -23 -119 -65 -148 -162 -22 -71 -48 -125 -60 -125
-3 0 -9 18 -13 40 -15 94 -82 201 -143 226 -42 18 -67 18 -133 -2 -138 -41
-243 -248 -270 -532 -12 -126 -1 -289 24 -359 8 -24 14 -43 13 -43 -2 0 -20 9
-42 20 -62 31 -97 34 -147 12 -58 -25 -88 -82 -88 -165 0 -92 42 -166 115
-204 l30 -16 -50 -12 c-61 -16 -95 -52 -95 -101 0 -71 70 -163 156 -205 l44
-21 -27 -34 c-18 -24 -31 -33 -42 -29 -91 36 -211 -16 -211 -91 0 -38 27 -94
45 -94 30 0 94 -40 121 -75 26 -34 70 -165 56 -165 -4 1 -18 7 -32 15 -36 20
-127 18 -176 -4 -52 -24 -94 -77 -94 -120 0 -41 53 -94 84 -85 35 12 125 6
174 -10 27 -9 63 -32 81 -50 29 -30 34 -43 38 -99 7 -80 -8 -170 -52 -312 -59
-191 -74 -263 -64 -297 13 -47 57 -87 113 -103 144 -43 270 19 436 214 47 55
88 100 91 100 4 1 9 -12 12 -28 9 -43 89 -210 131 -274 20 -30 40 -76 45 -103
66 -342 178 -604 369 -863 30 -41 47 -71 38 -68 -191 74 -426 47 -513 -57 -27
-32 -31 -34 -118 -39 -62 -3 -128 -17 -215 -42 -321 -96 -505 -134 -685 -141
-99 -4 -135 -10 -208 -36 -74 -25 -97 -29 -142 -23 -81 10 -136 42 -163 95
-21 40 -23 55 -18 127 6 103 49 232 122 373 80 153 56 139 237 140 150 2 157
3 182 26 90 83 86 283 -8 390 -22 25 -51 51 -66 59 -91 46 -371 83 -663 86
-76 0 -138 5 -138 10 0 5 4 9 9 9 18 0 134 114 209 205 79 95 125 137 182 164
69 32 106 61 128 99 24 44 29 109 11 160 -12 34 -101 115 -148 135 l-31 13 36
18 c100 47 235 180 332 325 156 232 214 452 164 617 -35 115 -107 164 -241
164 -113 0 -281 -59 -381 -135 -31 -23 -35 -24 -38 -8 -8 51 -15 67 -48 103
-63 69 -184 89 -247 40 l-24 -19 -18 57 c-25 81 -50 127 -98 179 -54 58 -103
83 -167 83 -71 0 -107 -18 -187 -94 -39 -36 -87 -73 -108 -82 l-37 -15 -92 69
c-118 91 -162 112 -227 112 -65 0 -107 -25 -148 -87 -36 -54 -84 -174 -102
-256 -7 -32 -16 -60 -20 -63 -5 -3 -37 0 -73 7 -49 8 -74 8 -100 -1 -38 -12
-96 -65 -96 -88 0 -7 -3 -12 -7 -10 -236 121 -630 143 -806 45 -78 -44 -92
-108 -62 -294 50 -310 186 -519 410 -628 135 -67 233 -88 375 -83 105 4 121 7
164 32 l48 28 42 -31 c169 -125 284 -202 318 -213 6 -2 -4 -26 -21 -53 -34
-54 -51 -103 -51 -151 0 -48 58 -109 130 -135 33 -12 60 -23 60 -24 0 -2 -21
-13 -46 -25 -27 -13 -62 -43 -85 -73 -43 -54 -106 -180 -134 -267 -10 -30 -24
-66 -31 -80 -8 -14 -30 -61 -48 -104 l-34 -79 -34 54 c-19 30 -54 89 -79 133
-81 145 -207 256 -289 256 -96 -1 -217 -139 -305 -350 -31 -74 -42 -90 -61
-90 -25 0 -45 47 -64 156 -31 178 -61 253 -114 288 -60 39 -102 11 -192 -127
-37 -56 -78 -114 -92 -129 -52 -57 -106 -26 -152 86 -22 56 -38 68 -59 42 -18
-22 16 -170 60 -258 28 -56 76 -106 109 -113 40 -9 103 26 164 90 l50 54 23
-81 c34 -116 70 -184 126 -233 125 -113 251 -49 423 212 73 110 76 114 97 100
73 -47 283 -422 333 -594 33 -114 119 -294 190 -395 l55 -79 -38 7 c-79 16
-170 8 -220 -18 -39 -20 -53 -35 -76 -81 -24 -48 -26 -60 -16 -79 54 -106 182
-132 379 -77 101 28 244 95 237 111 -3 7 -22 49 -41 93 -65 148 -104 350 -77
394 7 10 24 12 77 7 105 -10 124 -16 124 -35 0 -9 16 -49 35 -90 19 -40 35
-83 35 -96 0 -12 -13 -68 -29 -125 l-30 -102 22 -33 c12 -19 34 -41 50 -50 58
-34 295 -36 364 -3 25 12 35 11 91 -9 35 -13 105 -28 155 -34 78 -10 105 -9
177 5 47 9 121 21 165 26 127 15 278 46 440 91 83 23 201 54 264 70 l115 29
45 -36 c25 -19 93 -79 150 -132 243 -225 296 -246 566 -214 244 28 516 80 705
133 97 28 309 108 389 147 68 34 97 153 58 243 l-15 37 154 7 c132 6 177 4
302 -14 238 -34 310 -41 430 -41 148 0 234 20 312 72 56 37 60 42 60 78 0 78
-41 137 -120 173 -97 43 -354 31 -477 -23 -68 -30 -71 -7 -11 70 28 36 67 99
87 140 35 73 36 78 35 185 -1 125 -22 205 -98 369 l-44 93 67 7 c274 25 464
168 516 387 52 224 -32 458 -236 655 -98 94 -167 139 -341 222 -214 104 -243
139 -243 297 0 87 3 107 26 155 36 75 102 156 156 190 76 49 208 73 360 68
156 -6 241 -31 308 -90 58 -51 79 -107 72 -194 -4 -51 -2 -67 9 -71 68 -26 67
175 -1 314 -90 184 -316 271 -592 229 -318 -48 -521 -229 -593 -526 -44 -186
-13 -347 85 -445 27 -27 98 -69 214 -128 212 -107 264 -141 335 -217 73 -80
99 -148 100 -260 0 -99 -19 -152 -79 -218 -67 -75 -186 -113 -292 -92 -32 6
-63 12 -70 14 -7 1 -20 9 -30 18 -10 9 -38 26 -63 39 -43 22 -60 23 -315 30
-250 6 -276 9 -347 32 -141 45 -237 127 -312 266 -22 39 -55 89 -73 111 -40
47 -124 90 -174 90 -33 0 -37 3 -43 31 -10 50 -5 285 7 386 l12 92 60 49 c33
26 76 71 95 99 l35 51 95 -4 c108 -6 131 2 168 56 20 29 23 43 18 80 -8 58
-63 140 -121 180 -27 19 -45 39 -45 50 0 17 3 18 28 8 15 -7 75 -11 137 -11
148 1 202 21 279 104 133 143 216 422 216 723 0 307 -56 484 -164 520 -34 12
-47 12 -90 -1 -28 -8 -72 -28 -97 -44 l-46 -29 -39 35 c-47 43 -138 88 -225
110 -87 23 -222 28 -282 12z m-408 -107 c24 -56 38 -124 43 -217 4 -60 4 -61
-28 -76 -39 -19 -82 -73 -90 -115 -6 -29 -12 -34 -68 -51 -51 -15 -64 -24 -78
-52 -26 -50 -23 -125 7 -177 l25 -44 -38 -53 c-20 -30 -40 -54 -43 -55 -4 0
-15 28 -25 63 -26 86 -26 325 0 452 38 188 112 320 201 360 56 25 71 20 94
-35z m87 -13 c35 -50 64 -135 64 -185 0 -30 -33 -67 -50 -57 -4 2 -10 41 -14
85 -3 44 -17 110 -30 146 -27 75 -16 78 30 11z m856 -124 c-77 -110 -223 -488
-224 -583 -1 -62 20 -113 53 -131 13 -6 49 -9 84 -7 l63 4 -77 -57 c-90 -67
-151 -129 -180 -184 -17 -32 -21 -58 -21 -129 0 -87 0 -88 -22 -81 -13 3 -66
9 -120 12 l-96 6 33 46 c66 93 105 192 130 327 l14 79 -52 45 c-93 79 -182
174 -200 213 -25 51 -66 51 -46 -1 9 -22 5 -30 -28 -64 -20 -21 -41 -38 -46
-38 -16 0 4 182 24 222 20 40 60 73 80 66 7 -2 31 -40 53 -83 30 -59 55 -90
95 -122 50 -42 86 -52 86 -26 0 7 -25 33 -55 59 l-55 47 40 -7 c56 -11 93 -32
91 -53 0 -11 7 -19 20 -21 17 -2 37 23 110 140 49 78 113 174 143 213 74 97
156 183 103 108z m-758 -315 c-18 -61 -21 -63 -107 -91 -46 -15 -111 -31 -143
-35 l-59 -7 0 -36 c0 -20 -7 -44 -15 -53 -13 -17 -15 -17 -32 4 -26 32 -32 81
-15 121 13 31 22 37 103 63 143 47 176 55 227 55 46 1 48 0 41 -21z m-62 -336
c-42 -65 -71 -133 -97 -224 -8 -32 -18 -58 -20 -58 -2 0 -26 8 -52 19 -26 10
-66 22 -89 25 -33 6 -47 16 -76 53 -32 41 -34 49 -25 78 9 31 53 95 120 176
19 22 31 30 34 21 3 -7 18 -19 33 -27 90 -47 202 29 171 115 -9 28 -8 32 12
39 21 8 22 6 25 -74 3 -82 2 -84 -36 -143z m394 -122 c-10 -114 -73 -260 -145
-341 l-36 -40 -37 15 c-21 9 -52 16 -71 16 -29 0 -35 5 -51 40 -10 22 -40 59
-67 83 -47 40 -49 44 -43 80 12 74 67 208 107 262 15 20 16 20 42 -5 21 -20
37 -25 75 -25 52 0 85 21 101 63 9 23 10 23 70 -29 l61 -53 -6 -66z m-893 37
c29 -16 37 -27 37 -49 0 -39 -32 -68 -76 -68 -48 0 -107 56 -102 97 6 54 64
62 141 20z m339 -227 c114 -44 184 -120 190 -207 4 -46 34 -59 44 -18 6 23 9
25 43 19 45 -8 50 -13 28 -25 -9 -6 -17 -17 -17 -26 0 -17 18 -15 110 11 113
33 234 12 331 -56 104 -73 148 -170 97 -218 -27 -25 -129 -28 -204 -5 -52 15
-69 8 -58 -28 21 -68 -220 -254 -390 -299 l-46 -12 -35 41 c-20 23 -51 48 -70
54 -26 10 -38 22 -46 48 -13 42 -52 111 -87 159 l-24 33 39 -7 c52 -10 97 -49
132 -114 44 -83 62 -95 135 -95 77 1 172 43 235 106 46 47 118 152 140 207 8
18 18 35 23 38 5 3 40 -13 79 -36 66 -39 106 -46 97 -17 -7 19 -138 96 -192
112 -85 26 -176 15 -176 -21 0 -14 9 -15 58 -10 84 9 94 -4 33 -43 -118 -76
-321 -119 -477 -100 -141 17 -234 79 -292 194 -17 36 -72 179 -72 191 0 2 26
4 58 4 100 1 164 43 178 118 6 33 8 34 44 28 21 -3 62 -15 92 -26z m2358 -61
c105 -29 177 -76 231 -150 l19 -27 -68 34 c-70 35 -210 64 -307 64 -96 0 -241
-28 -308 -60 -86 -41 -166 -125 -215 -227 -35 -74 -37 -83 -37 -178 0 -89 3
-105 27 -151 15 -29 47 -68 70 -88 37 -32 173 -104 272 -145 92 -38 301 -210
311 -256 2 -11 11 -40 20 -64 19 -54 39 -247 32 -318 -9 -86 -47 -188 -93
-246 -56 -72 -167 -132 -228 -124 -56 8 -117 77 -68 77 11 0 46 18 80 40 153
98 200 300 113 485 -58 124 -148 195 -421 334 -88 46 -176 96 -194 112 -18 15
-46 57 -62 91 -27 58 -29 72 -29 178 1 91 5 130 24 190 33 108 78 186 146 256
152 154 467 234 685 173z m-2749 -131 c8 -34 49 -128 87 -200 7 -15 -50 -8
-86 11 -50 25 -118 100 -127 139 -11 54 23 90 87 91 24 1 29 -4 39 -41z m-451
-23 c54 -28 75 -90 75 -220 0 -89 -5 -123 -24 -180 -57 -168 -167 -339 -299
-467 -73 -70 -181 -148 -206 -148 -12 0 -6 51 10 82 15 30 15 32 -2 45 -20 15
-22 9 40 148 25 58 37 102 42 155 6 68 11 82 56 149 43 65 47 76 34 89 -13 13
-18 12 -45 -7 -16 -12 -44 -26 -60 -32 -28 -10 -34 -8 -80 33 -32 27 -50 51
-51 66 -1 49 43 113 137 200 51 48 99 90 107 94 24 13 140 24 188 17 25 -4 60
-15 78 -24z m-459 -109 c-33 -36 -72 -87 -84 -115 l-24 -50 -20 21 -21 20 28
42 c33 48 53 67 118 112 71 49 72 41 3 -30z m-2159 15 c181 -32 242 -60 278
-131 29 -57 124 -155 188 -194 78 -47 176 -79 317 -106 109 -21 138 -22 320
-16 294 9 497 48 660 128 l40 19 -33 -27 c-18 -14 -82 -99 -141 -188 -106
-158 -167 -227 -217 -246 -52 -20 -88 -10 -219 60 -204 110 -271 140 -346 154
-56 11 -71 11 -79 1 -8 -10 -5 -19 11 -34 27 -25 27 -25 -35 -6 -59 18 -145
19 -181 3 -73 -33 -85 -148 -28 -268 20 -40 66 -104 123 -167 50 -57 88 -103
85 -103 -11 0 -136 84 -220 149 l-80 60 -2 55 c-4 103 -61 172 -199 243 l-72
37 51 21 c65 26 91 61 91 122 0 117 -154 296 -334 388 -19 10 -64 28 -100 41
-61 21 -63 23 -28 23 20 1 87 -8 150 -18z m3232 -163 c33 -25 43 -38 39 -53
-8 -32 -38 -70 -59 -73 -29 -4 -104 53 -104 80 0 24 46 78 67 78 7 0 33 -15
57 -32z m-1196 -57 c65 -45 129 -109 98 -97 -26 9 -166 9 -190 0 -16 -6 -17
-5 -5 14 16 25 10 32 -31 41 l-31 6 48 37 c26 20 49 37 51 37 2 1 29 -17 60
-38z m1761 -22 c21 -62 16 -74 -42 -92 -69 -22 -123 -22 -131 -1 -18 47 -2 94
33 95 14 0 46 6 71 13 25 8 48 14 52 15 3 0 11 -13 17 -30z m-765 -9 c81 -36
144 -135 162 -253 10 -62 20 -71 58 -48 54 33 155 63 190 55 36 -8 72 -30 79
-48 4 -11 -8 -12 -57 -9 -86 7 -153 -16 -200 -68 -40 -43 -44 -57 -20 -66 10
-3 29 7 52 30 45 43 78 57 140 57 56 0 117 -27 154 -66 68 -73 64 -187 -7
-194 -46 -5 -55 -1 -55 29 0 17 -11 42 -26 60 -21 26 -33 31 -68 31 -43 0
-105 -27 -116 -51 -4 -8 -12 -23 -17 -34 -6 -12 -8 -45 -5 -74 4 -41 0 -63
-13 -88 -10 -18 -22 -33 -27 -33 -4 0 -8 -9 -8 -20 0 -11 5 -20 11 -20 7 0 10
-44 7 -142 l-3 -143 28 -3 c66 -8 122 59 226 266 33 66 67 127 76 136 9 9 32
16 50 16 29 0 34 -4 37 -27 2 -17 9 -28 18 -28 27 0 15 143 -23 280 l-33 120
90 37 c49 21 92 36 94 33 2 -2 -1 -43 -7 -92 -13 -103 -14 -289 -2 -350 7 -36
4 -51 -18 -95 -39 -80 -41 -230 -5 -523 4 -35 -1 -29 -46 58 -33 63 -53 117
-57 149 -11 93 -40 80 -176 -77 -140 -164 -203 -205 -319 -206 -76 -1 -108 10
-138 48 -29 36 -24 76 29 248 82 266 95 349 71 437 -26 94 -117 147 -267 157
-93 6 -98 7 -101 29 -7 50 76 98 158 93 61 -5 105 -37 124 -92 21 -57 32 -67
52 -47 13 12 12 19 -1 52 -9 21 -25 78 -35 126 -20 93 -54 173 -88 203 -11 10
-44 31 -74 46 -65 33 -75 66 -32 100 34 26 82 27 138 1z m336 -111 c39 -74 38
-85 -7 -94 -20 -4 -54 -15 -75 -26 -29 -15 -39 -17 -43 -7 -29 85 -43 126 -49
139 -6 13 -1 15 22 11 24 -3 32 3 57 38 l29 42 18 -24 c9 -13 31 -48 48 -79z
m-1500 16 c-17 -45 3 -55 53 -26 35 20 55 24 119 24 102 -1 168 -29 168 -70 0
-130 -6 -155 -61 -265 -26 -52 -45 -78 -57 -78 -9 0 -30 -8 -47 -18 l-30 -19
-15 61 -15 61 -99 3 c-54 1 -149 -4 -209 -13 -61 -8 -112 -13 -114 -11 -5 5
171 263 205 300 31 33 103 88 109 82 2 -2 -1 -16 -7 -31z m385 -5 c-3 -5 -10
-10 -16 -10 -5 0 -9 5 -9 10 0 6 7 10 16 10 8 0 12 -4 9 -10z m-1323 -261 c29
-11 93 -44 143 -72 l90 -51 -35 -8 c-19 -4 -93 -3 -164 2 -127 10 -166 4 -150
-22 3 -5 9 -85 13 -179 5 -133 10 -172 21 -180 16 -11 314 -5 344 7 9 3 16 2
16 -4 0 -15 -80 -51 -131 -60 -30 -5 -45 -13 -47 -25 -8 -41 138 -5 198 49
l39 36 -23 -69 c-58 -167 -107 -243 -180 -280 -71 -36 -183 -37 -251 -2 -28
14 -57 39 -67 56 -18 30 -18 32 2 84 12 30 35 75 51 100 16 25 29 51 29 58 0
20 -52 89 -139 186 -99 110 -143 191 -145 270 -1 50 2 59 27 81 36 30 100 32
177 3 76 -28 93 -31 109 -20 12 8 13 14 3 35 -15 33 -3 34 70 5z m1030 -139
c4 -19 8 -72 9 -117 2 -74 0 -85 -25 -123 -30 -46 -52 -57 -114 -58 l-44 -1
44 28 c69 44 109 124 94 185 -9 37 -55 86 -100 107 l-41 18 85 -2 84 -2 8 -35z
m-337 1 c-41 -25 -65 -53 -74 -87 -7 -27 -9 -24 -16 24 -4 29 -4 56 -1 59 6 7
69 20 101 22 16 1 14 -3 -10 -18z m-293 -61 c15 0 18 -5 13 -19 -3 -11 -1 -22
4 -26 7 -4 6 -13 -2 -25 -8 -14 -23 -20 -49 -20 -55 0 -296 37 -353 54 -67 21
-76 10 -43 -57 53 -108 120 -157 216 -157 48 0 151 30 180 53 15 12 16 -1 0
-35 -14 -29 -38 -32 -290 -45 -105 -5 -128 -4 -132 8 -2 8 -7 78 -10 157 l-5
142 167 0 c92 0 173 4 181 9 9 6 29 1 59 -15 25 -13 54 -24 64 -24z m154 3
c-3 -3 -27 -7 -53 -10 l-48 -4 50 24 c40 19 51 21 53 10 2 -8 1 -17 -2 -20z
m206 -3 c-4 -35 0 -44 31 -75 46 -46 87 -47 127 -5 36 38 41 38 29 -2 -17 -62
-90 -118 -154 -118 -28 0 -45 9 -80 41 -71 66 -72 137 -3 179 47 28 54 26 50
-20z m1776 8 c7 -7 12 -27 12 -44 0 -34 28 -64 61 -64 27 0 -124 -291 -184
-354 l-48 -51 6 115 c4 73 11 117 18 119 7 2 23 16 38 30 44 44 45 99 4 228
-5 16 -2 22 12 26 35 9 69 7 81 -5z m-1347 -28 c-11 -36 -12 -100 -3 -116 8
-15 5 -22 -20 -37 -34 -21 -49 -14 -68 33 -26 62 15 144 68 138 18 -2 26 -8
23 -18z m-964 -141 l10 -39 -60 0 c-58 0 -61 1 -108 49 -27 26 -49 52 -49 57
0 5 44 1 98 -9 l99 -20 10 -38z m263 61 c0 -5 -4 -10 -10 -10 -5 0 -10 5 -10
10 0 6 5 10 10 10 6 0 10 -4 10 -10z m769 -125 c-25 -13 -60 -40 -77 -60 l-32
-36 0 30 c0 18 11 40 29 60 25 27 36 31 78 31 l48 -1 -46 -24z m-146 -21 c-9
-23 -23 -16 -23 12 0 22 2 24 14 14 8 -6 12 -18 9 -26z m1958 1 c34 -22 58
-55 149 -200 70 -113 210 -213 340 -245 25 -6 167 -16 315 -22 292 -12 303
-14 376 -75 88 -75 237 -332 305 -528 24 -69 28 -96 28 -200 1 -113 -1 -123
-28 -177 -15 -31 -51 -84 -78 -117 -44 -55 -51 -60 -70 -50 -11 6 -33 8 -49 5
-26 -5 -29 -3 -29 20 0 14 7 39 16 56 22 43 15 129 -16 192 -33 65 -115 145
-188 184 -96 51 -156 62 -344 62 -145 0 -169 -2 -175 -16 -9 -25 16 -35 80
-32 31 2 57 1 57 -1 0 -2 -29 -47 -64 -100 -35 -53 -72 -112 -82 -131 -23 -45
-24 -129 -1 -163 16 -25 16 -27 -20 -82 l-36 -56 -23 28 c-29 35 -107 185
-124 237 -10 31 -10 63 0 161 l13 122 38 -7 c21 -4 43 -4 50 0 19 12 2 40 -25
40 -39 0 -151 38 -168 57 -16 19 -38 123 -84 403 -28 169 -37 198 -59 180 -11
-10 5 -125 66 -450 85 -460 206 -764 334 -841 l29 -18 -78 4 c-90 5 -67 -17
-234 220 -221 312 -287 477 -366 915 -51 282 -60 525 -23 597 36 68 92 77 168
28z m-2341 15 c12 -8 11 -10 -7 -10 -13 0 -23 5 -23 10 0 13 11 13 30 0z m310
0 c0 -5 -5 -10 -11 -10 -5 0 -7 5 -4 10 3 6 8 10 11 10 2 0 4 -4 4 -10z m338
-38 c15 -10 32 -66 32 -107 0 -53 -31 -87 -129 -140 -81 -44 -99 -59 -149
-125 -87 -114 -191 -218 -254 -255 -53 -31 -64 -34 -141 -34 -122 0 -180 -17
-327 -97 -33 -18 -58 -23 -94 -21 l-50 2 -10 -43 c-12 -47 -10 -46 -64 -37
-70 12 -196 -31 -173 -59 9 -10 22 -9 67 6 31 10 64 17 73 15 9 -2 -9 -11 -40
-20 -62 -18 -92 -43 -66 -53 8 -3 36 2 61 10 26 9 63 16 84 16 30 0 39 -5 49
-26 17 -36 3 -58 -45 -72 -21 -6 -49 -23 -62 -37 -22 -23 -29 -25 -119 -24
-131 1 -147 7 -143 49 3 38 64 170 115 250 28 42 33 58 24 68 -9 12 -15 9 -35
-14 -88 -109 -182 -354 -144 -378 5 -3 67 -10 138 -16 71 -6 137 -13 146 -16
12 -3 22 4 33 25 15 31 55 61 55 42 0 -5 -9 -13 -21 -16 -34 -11 -20 -47 31
-75 38 -21 57 -24 122 -23 47 1 80 -3 85 -9 3 -6 -8 -24 -26 -40 -41 -36 -94
-38 -140 -4 -33 24 -61 25 -61 2 0 -14 35 -49 67 -65 27 -14 98 -14 124 -1 27
15 25 -4 -3 -31 -51 -47 -94 -47 -128 2 -28 38 -48 37 -65 -5 -11 -25 -12 -43
-5 -67 6 -19 10 -40 10 -46 0 -20 -45 -15 -65 7 -23 26 -24 98 -2 130 12 18
13 27 4 47 -13 28 -14 28 -146 -7 -67 -18 -103 -21 -178 -18 -124 5 -147 21
-151 102 -9 165 112 523 215 637 36 39 39 41 84 36 58 -7 80 9 47 34 l-22 17
24 10 c14 5 51 15 84 21 33 6 73 21 91 35 27 21 34 23 39 11 3 -9 -5 -20 -22
-29 -37 -20 -67 -54 -86 -100 -21 -50 -20 -66 2 -66 10 0 23 15 33 39 l17 40
43 -22 c33 -16 67 -22 142 -25 306 -13 685 141 754 305 14 34 17 100 7 128
-10 25 -58 45 -108 45 -52 0 -96 14 -96 31 0 26 33 49 71 49 85 0 132 -42 153
-133 10 -41 52 -77 90 -77 23 0 41 9 63 33 36 38 66 94 58 107 -13 20 -46 10
-56 -17 -24 -65 -78 -93 -99 -52 -31 58 58 159 140 159 19 0 41 -4 48 -8z
m-944 -32 c21 -10 58 -22 82 -26 39 -6 60 -2 117 21 15 6 17 0 17 -50 0 -31
-5 -65 -10 -75 -9 -17 -14 -18 -38 -8 -16 7 -76 11 -144 10 l-116 -1 25 74
c14 41 26 75 27 75 1 0 19 -9 40 -20z m431 -11 c-9 -38 21 -75 69 -85 42 -9
76 -42 76 -74 0 -49 -78 -136 -138 -154 -58 -18 -142 37 -182 118 -16 35 -18
49 -10 70 5 15 10 47 10 72 0 24 3 44 6 44 3 0 15 -11 26 -25 11 -14 26 -25
33 -25 25 0 28 21 6 44 -35 38 -27 46 45 46 l66 0 -7 -31z m201 -111 c11 -18
5 -77 -11 -107 -7 -14 -33 -44 -56 -66 l-43 -40 42 49 c48 56 57 80 49 137 -5
38 4 51 19 27z m-439 -74 c52 -39 37 -83 -18 -53 -16 8 -26 5 -55 -20 -19 -17
-41 -32 -49 -32 -8 -1 -21 -2 -27 -3 -24 -4 -100 23 -139 49 -39 25 -39 26
-24 54 l15 29 134 -1 c120 -2 138 -4 163 -23z m117 -139 c38 -29 104 -41 146
-27 17 6 28 7 26 3 -6 -9 -177 -84 -180 -79 -4 6 -36 115 -36 121 0 12 10 8
44 -18z m-68 -121 c-58 -21 -217 -44 -294 -44 -70 0 -172 24 -172 40 0 16 20
22 35 10 10 -8 18 -6 34 11 l20 22 22 -37 c11 -20 24 -36 27 -36 3 0 20 14 37
30 l31 30 24 -25 c29 -31 37 -31 71 1 26 25 28 25 57 10 38 -19 62 -21 62 -3
0 29 22 37 54 20 l31 -16 -39 -13z m-2062 -213 c27 -29 55 -113 77 -229 31
-160 60 -212 117 -212 39 0 65 31 100 118 71 174 170 305 240 318 29 6 47 1
90 -21 62 -32 105 -80 169 -185 25 -41 67 -110 94 -152 l47 -77 -22 -70 c-12
-39 -25 -73 -27 -76 -3 -2 -35 57 -71 133 -75 157 -128 223 -203 258 -66 31
-79 30 -123 -11 l-37 -35 24 -19 25 -19 -77 -114 c-86 -130 -207 -252 -207
-209 0 5 -13 14 -30 21 -16 7 -47 31 -68 54 -32 34 -45 64 -75 161 -21 66 -43
138 -50 160 -15 50 -50 72 -91 56 -27 -11 -28 -14 -23 -57 5 -45 4 -47 -63
-116 -46 -48 -73 -69 -86 -66 -10 2 -34 26 -52 53 l-34 50 34 6 c54 9 76 29
150 139 108 161 134 183 172 141z m2368 -48 c35 -34 36 -37 21 -60 -15 -22
-15 -26 4 -51 22 -30 83 -46 130 -33 24 6 28 13 31 48 2 22 -3 59 -11 81 -14
40 -14 42 4 42 13 0 19 -7 19 -21 0 -28 30 -131 41 -144 6 -5 13 -5 20 2 7 7
5 29 -6 73 -16 61 -15 90 4 90 18 0 46 -56 51 -105 3 -35 9 -50 20 -50 21 0
25 74 6 120 -14 34 -14 37 0 31 9 -3 19 -6 24 -6 4 0 6 -19 4 -42 -8 -89 55
-149 102 -97 14 16 19 34 18 76 l-2 55 24 -28 c12 -16 28 -50 34 -76 7 -29 18
-48 26 -48 19 0 18 51 -1 97 -8 19 -15 37 -15 38 0 3 93 -14 94 -18 1 -1 7
-12 14 -24 11 -21 10 -23 -14 -23 -19 0 -25 -4 -22 -17 2 -12 16 -20 43 -24
37 -6 35 -6 -17 -8 -42 -1 -58 -5 -58 -15 0 -8 7 -17 16 -20 26 -10 132 -7
139 5 4 5 -4 32 -17 59 -20 40 -21 47 -7 40 34 -19 69 -72 89 -137 23 -75 24
-113 6 -166 -27 -76 -19 -73 -289 -80 -133 -3 -312 -13 -397 -21 -85 -9 -176
-18 -202 -20 -45 -5 -62 4 -38 19 50 31 52 221 4 339 -18 46 -44 87 -75 119
l-48 49 97 -7 c93 -7 98 -8 134 -42z m110 21 c5 -3 13 -14 18 -25 10 -17 7
-19 -23 -19 -26 0 -38 7 -56 31 l-24 32 39 -8 c21 -4 42 -9 46 -11z m-371 -15
c36 -21 88 -83 103 -123 6 -18 2 -19 -119 -13 l-125 7 -31 -28 c-41 -37 -49
-111 -21 -199 l20 -62 -45 -7 c-29 -4 -48 -3 -52 4 -4 7 -39 11 -93 9 -107 -3
-120 6 -93 60 10 21 20 45 21 53 7 36 79 161 120 207 88 102 226 142 315 92z
m699 -61 c0 -53 -13 -69 -30 -37 -11 19 -6 81 7 102 10 17 23 -18 23 -65z
m-312 -4 c15 -4 22 -14 22 -30 0 -20 -5 -24 -31 -24 -34 0 -69 16 -69 31 0 5
10 14 23 19 28 11 27 11 55 4z m-760 -21 c-10 -24 -54 -93 -58 -93 -6 0 -2 65
5 88 3 6 16 12 31 12 14 0 24 -3 22 -7z m460 -130 c22 -73 21 -78 -23 -81
l-41 -3 4 41 c2 23 -1 47 -7 53 -19 19 -12 27 22 27 30 0 35 -4 45 -37z m2563
-132 c3 -3 3 -37 0 -76 -6 -72 -10 -70 -31 15 -6 25 -14 53 -17 63 -4 16 -1
18 19 12 12 -4 26 -10 29 -14z m619 -31 c201 -38 371 -232 320 -365 -8 -20
-15 -25 -28 -20 -9 4 -45 9 -79 10 -44 2 -69 8 -88 23 -66 52 -136 36 -180
-42 -27 -46 -30 -49 -33 -26 -10 66 -77 84 -171 46 l-61 -25 -15 29 c-32 61
-15 110 89 263 36 54 66 102 66 107 0 13 112 13 180 0z m-4383 -80 c0 -61 3
-74 24 -97 13 -14 38 -32 56 -39 62 -26 299 -13 387 22 16 6 17 4 7 -14 -26
-48 -7 -146 32 -173 5 -4 4 -9 -2 -13 -7 -4 -11 -40 -11 -88 l0 -81 -82 7
c-46 4 -93 10 -106 13 -18 4 -25 -1 -37 -31 -31 -74 -7 -249 56 -406 17 -41
31 -81 32 -89 3 -19 -142 -78 -239 -98 l-75 -15 -20 26 c-11 14 -27 26 -34 26
-19 0 -34 28 -27 52 4 16 11 19 33 14 31 -6 60 17 42 35 -15 15 -4 49 16 49 9
0 49 -9 89 -20 106 -30 132 -10 97 74 -13 31 -18 35 -34 27 -22 -12 -38 3
-100 95 -47 70 -90 161 -134 284 -28 77 -31 97 -31 210 -1 113 2 134 28 213
16 48 30 87 31 87 1 0 2 -32 2 -70z m977 -9 c10 -11 13 -22 8 -25 -10 -6 -23
-3 -77 17 l-30 12 30 6 c48 10 51 10 69 -10z m746 -134 c-97 -185 -135 -319
-128 -449 4 -67 9 -85 34 -121 30 -43 88 -78 153 -94 l35 -8 -70 -51 c-77 -58
-136 -89 -239 -128 -38 -15 -79 -32 -90 -39 -11 -6 -65 -13 -121 -15 -80 -3
-119 0 -185 17 -218 55 -428 216 -531 406 -30 55 -33 69 -38 177 l-5 116 36 6
c63 10 78 42 52 113 -6 17 -6 17 14 1 27 -25 99 -23 142 3 18 11 34 19 36 17
1 -2 10 -17 19 -35 16 -31 64 -73 85 -73 20 0 11 29 -14 46 -28 18 -43 41 -55
85 l-8 28 38 -20 c48 -25 113 -23 118 4 3 14 -4 17 -45 17 -45 0 -87 17 -105
44 -10 15 -10 18 6 39 13 17 16 17 45 2 20 -10 52 -15 89 -14 31 1 74 -3 94
-8 27 -8 87 -5 230 9 178 18 357 33 435 36 l32 2 -59 -113z m2759 -171 l22
-23 -56 -52 c-31 -28 -69 -54 -83 -57 -15 -3 -37 -10 -50 -15 -52 -21 -55 -9
-10 39 25 27 51 59 58 73 33 64 79 78 119 35z m-231 -28 c2 -9 -11 -25 -32
-37 -19 -12 -48 -37 -65 -56 -17 -19 -37 -35 -44 -35 -7 0 -34 -11 -60 -23
-25 -13 -45 -21 -45 -18 1 3 -2 13 -6 23 -17 38 44 106 134 148 52 23 113 23
118 -2z m422 -31 c14 -26 14 -29 -4 -43 -38 -27 -177 -74 -239 -80 l-62 -6 40
21 c22 11 67 48 100 81 57 58 62 61 105 58 37 -3 47 -8 60 -31z m-1088 -68
c47 -10 85 -27 177 -79 25 -14 25 -15 -39 -22 -234 -26 -354 -38 -383 -38
l-32 1 28 24 c15 14 39 25 51 25 29 0 40 24 20 41 -20 17 -83 -3 -113 -35 -20
-21 -26 -23 -54 -14 l-31 11 38 33 c64 55 216 79 338 53z m1224 -14 c43 -43
31 -74 -46 -113 -88 -44 -185 -62 -377 -69 l-162 -6 -40 36 c-21 19 -55 41
-75 48 -20 7 -36 16 -36 20 0 4 26 13 57 19 69 15 164 2 226 -30 31 -17 45
-19 61 -11 12 6 50 18 85 26 36 9 93 29 127 45 35 15 64 26 67 24 2 -2 12 5
22 16 25 27 61 25 91 -5z m546 4 c53 -14 96 -53 109 -102 10 -38 9 -43 -11
-59 -22 -18 -23 -18 -39 14 -30 59 -62 73 -161 73 -90 0 -116 -9 -105 -37 5
-11 22 -14 88 -10 73 4 85 2 110 -18 40 -32 34 -69 -13 -86 -58 -21 -352 -17
-499 6 -111 17 -161 30 -118 30 27 0 111 40 140 68 15 14 27 36 27 48 0 63
319 113 472 73z m-2166 -120 c25 -6 43 -14 40 -16 -2 -2 -71 -8 -153 -13 -183
-11 -216 -20 -272 -76 l-43 -44 4 -92 c8 -162 56 -218 188 -218 59 0 89 6 159
34 47 18 101 37 119 41 31 6 32 6 32 -27 0 -49 -45 -132 -91 -169 -91 -72
-222 -91 -332 -49 -67 25 -125 69 -267 204 -111 105 -219 190 -285 224 -46 24
-44 25 75 42 103 14 254 50 415 97 241 70 326 83 411 62z m904 -33 c48 -25
108 -83 131 -128 12 -24 19 -58 19 -93 0 -49 -4 -60 -29 -86 -40 -39 -52 -37
-38 6 12 40 -3 85 -28 85 -12 0 -14 -8 -9 -40 6 -35 4 -40 -12 -40 -11 -1 -36
-7 -56 -14 l-38 -14 0 36 0 35 -52 -6 c-58 -7 -79 -20 -60 -39 8 -8 21 -9 47
-1 39 12 39 13 24 -57 -11 -51 -28 -70 -75 -84 -21 -6 -21 -5 -13 40 11 59 -5
98 -43 102 -30 4 -47 -19 -59 -78 l-7 -35 -1 33 c-1 42 -34 76 -60 62 -33 -17
-59 -58 -71 -113 -13 -54 -34 -97 -49 -97 -5 0 -3 21 5 47 21 68 23 158 4 158
-9 0 -17 -15 -22 -45 -14 -86 -16 -90 -47 -90 -22 0 -34 8 -50 33 -32 51 -69
83 -83 69 -8 -8 -2 -22 25 -55 l36 -44 -24 -23 c-15 -14 -25 -35 -25 -51 0
-32 -4 -34 -120 -49 -47 -6 -94 -14 -105 -17 -15 -4 -11 4 16 33 86 91 103
198 50 310 -31 65 -117 161 -173 191 l-33 18 115 6 c63 4 142 9 175 13 33 3
105 11 160 17 309 32 517 34 575 5z m-943 -255 c38 -48 34 -62 -24 -82 l-53
-18 0 32 c0 18 -9 47 -20 65 l-20 32 48 -1 c39 0 51 -5 69 -28z m-2485 -83
c17 -23 49 -45 90 -62 l63 -27 -85 5 c-100 6 -131 15 -153 49 -17 26 -17 26
10 107 5 16 14 7 75 -72z m3208 -28 c0 -37 -25 -100 -39 -100 -14 0 -14 14 0
65 15 60 18 65 29 65 5 0 10 -14 10 -30z m229 6 c-8 -8 -31 -21 -53 -30 -35
-14 -38 -14 -32 0 3 9 6 22 6 31 0 9 6 13 14 10 8 -3 27 -2 43 2 34 10 42 5
22 -13z m-349 -28 c0 -57 -18 -105 -42 -111 -12 -4 -23 -5 -25 -4 -1 2 4 25
11 53 24 91 56 126 56 62z m-199 -108 c16 0 18 -3 10 -19 -11 -19 -73 -37 -92
-25 -15 9 31 56 49 49 7 -3 22 -5 33 -5z"/>
<path d="M2562 4423 c2 -10 18 -21 38 -26 19 -4 54 -27 77 -49 27 -26 47 -39
57 -35 9 4 16 10 16 15 0 15 -87 91 -116 102 -41 16 -76 13 -72 -7z"/>
<path d="M3330 2980 c0 -6 11 -27 25 -48 23 -33 23 -37 9 -54 -25 -27 -20 -69
10 -95 30 -26 78 -30 95 -9 17 20 36 185 23 198 -16 16 -30 1 -37 -42 -4 -22
-10 -40 -15 -40 -10 0 -29 23 -50 63 -17 31 -60 51 -60 27z m116 -146 c-3 -9
-6 -20 -6 -25 0 -14 -27 -10 -44 7 -21 21 -12 34 26 34 23 0 29 -4 24 -16z"/>
<path d="M3583 2965 c-40 -17 -54 -43 -56 -108 -3 -69 15 -72 31 -5 15 59 27
78 49 78 13 0 14 -12 8 -70 -6 -60 -5 -70 9 -70 9 0 16 2 16 4 0 2 7 32 16 65
11 45 12 66 4 80 -17 33 -41 41 -77 26z"/>
<path d="M3701 2954 c-56 -71 -26 -199 39 -164 31 17 50 53 57 109 7 59 -6 81
-47 81 -19 0 -36 -9 -49 -26z m56 -55 c-3 -23 -15 -51 -26 -63 l-21 -20 0 36
c0 46 18 88 38 88 11 0 13 -9 9 -41z"/>
<path d="M3817 2963 c-18 -17 -4 -32 31 -35 20 -2 36 -7 35 -13 -14 -94 -14
-125 0 -125 20 0 27 22 34 101 l6 66 -33 6 c-41 9 -65 9 -73 0z"/>
<path d="M4034 2920 l6 -40 -36 0 c-28 0 -35 -3 -32 -17 3 -13 12 -17 31 -15
15 1 27 -2 27 -7 0 -6 -24 -11 -52 -13 -39 -2 -53 -7 -53 -18 0 -21 89 -26
119 -6 41 26 43 156 4 156 -18 0 -20 -4 -14 -40z"/>
<path d="M5915 2121 c-3 -5 10 -22 30 -36 36 -28 38 -45 4 -45 -12 0 -19 -5
-16 -12 2 -8 19 -12 43 -11 29 2 42 -2 51 -16 11 -17 7 -20 -48 -30 -39 -8
-59 -17 -59 -27 0 -9 10 -14 28 -14 44 0 142 22 142 32 0 18 -49 85 -93 126
-46 41 -70 51 -82 33z"/>
<path d="M5603 2084 c-21 -21 -24 -32 -20 -62 l5 -37 -13 30 c-20 46 -58 77
-90 73 -47 -5 -52 -27 -25 -115 27 -89 35 -102 52 -85 8 8 6 27 -10 77 -26 78
-27 85 -7 85 20 0 52 -52 71 -117 10 -34 21 -53 31 -53 11 0 14 8 11 33 -3 17
-9 41 -13 52 -5 11 11 -1 34 -27 65 -73 121 -65 121 17 -1 62 -33 123 -74 140
-45 19 -42 19 -73 -11z m95 -76 c19 -38 21 -50 12 -68 l-12 -22 -23 22 c-56
53 -70 125 -23 118 16 -2 30 -18 46 -50z"/>
<path d="M5717 2103 c-15 -14 18 -33 56 -33 52 0 74 -20 93 -87 10 -34 21 -53
31 -53 30 0 0 104 -46 158 -16 18 -30 22 -73 22 -30 0 -58 -3 -61 -7z"/>
<path d="M5345 2060 c-3 -6 3 -22 14 -36 40 -51 20 -70 -34 -33 -46 31 -123
69 -140 69 -35 0 -10 -30 50 -60 64 -32 75 -43 55 -55 -33 -21 21 -100 75
-111 36 -6 95 20 95 43 0 20 -46 140 -64 168 -17 26 -40 33 -51 15z m67 -160
c2 -21 -2 -26 -24 -28 -29 -3 -76 34 -61 48 10 10 65 18 75 10 4 -3 9 -17 10
-30z"/>
<path d="M4697 2833 c-4 -3 -7 -21 -7 -40 0 -26 4 -33 19 -33 16 0 18 -6 14
-44 -3 -25 -1 -46 5 -50 16 -10 102 46 102 66 0 17 -10 22 -37 19 -8 -1 -13
11 -13 32 0 18 -5 38 -12 45 -13 13 -60 16 -71 5z"/>
<path d="M4616 2795 c-8 -23 4 -92 19 -105 24 -20 38 15 29 67 -9 49 -35 70
-48 38z"/>
<path d="M4311 2776 c-8 -9 -11 -47 -9 -107 3 -107 14 -119 65 -72 28 27 31
27 57 13 24 -13 28 -13 39 1 17 22 69 46 90 41 29 -6 30 24 3 65 -14 21 -26
46 -26 55 0 12 -8 18 -21 18 -20 0 -21 -4 -16 -50 3 -27 3 -50 -1 -50 -9 0
-57 60 -65 83 -9 23 -41 18 -45 -7 -2 -10 10 -35 27 -56 36 -45 39 -55 12 -41
-10 6 -30 35 -45 66 -26 55 -44 67 -65 41z"/>
</g>
</svg>
